<?xml version="1.0" encoding="UTF-8"?>
<svg xmlns="http://www.w3.org/2000/svg" width="512" height="512" viewBox="0 0 128 128"><g><path d="M100.036,22.219,79.256,6.959c-.009-.006-.019-.009-.027-.014A1.8,1.8,0,0,0,78.22,6.62H49.78a1.819,1.819,0,0,0-1.01.325c-.008.006-.018.008-.026.014l-20.78,15.26a1.75,1.75,0,0,0-.656,1.857L37.375,62.264a35.568,35.568,0,1,0,53.25,0l10.067-38.188A1.752,1.752,0,0,0,100.036,22.219ZM62.856,50.272,58.108,32.61H69.891L65.144,50.272A22.386,22.386,0,0,0,62.856,50.272ZM70.832,29.11H57.167L52.062,10.12H75.937ZM48.753,11.3c3.92,14.582,6.905,25.683,10.556,39.267a35.443,35.443,0,0,0-19.076,8.814L31,24.335ZM64,117.879A32.068,32.068,0,1,1,96.068,85.81,32.1,32.1,0,0,1,64,117.879Zm23.767-58.5A35.452,35.452,0,0,0,68.69,50.561C72.414,36.707,75.355,25.766,79.246,11.3L97,24.335Z"/><path d="M64,57.242A28.569,28.569,0,1,0,92.568,85.811,28.6,28.6,0,0,0,64,57.242Zm0,53.637A25.069,25.069,0,1,1,89.068,85.811,25.1,25.1,0,0,1,64,110.879Z"/><path d="M69.215,78.633,65.664,67.705a1.75,1.75,0,0,0-3.329,0l-3.55,10.928H47.3A1.75,1.75,0,0,0,46.266,81.8l9.3,6.753L52.011,99.48a1.751,1.751,0,0,0,2.694,1.957L64,94.683l9.3,6.754a1.75,1.75,0,0,0,2.692-1.957l-3.55-10.928,9.3-6.753a1.75,1.75,0,0,0-1.028-3.166Zm.137,7.835a1.749,1.749,0,0,0-.635,1.956L71,95.44,65.028,91.1a1.751,1.751,0,0,0-2.057,0L57,95.44l2.28-7.016a1.751,1.751,0,0,0-.636-1.956l-5.967-4.335h7.375a1.751,1.751,0,0,0,1.665-1.209L64,73.909l2.279,7.014a1.75,1.75,0,0,0,1.664,1.21h7.376Z"/></g></svg>
