<svg id="Layer_1" enable-background="new 0 0 512 512" height="512" viewBox="0 0 512 512" width="512" xmlns="http://www.w3.org/2000/svg"><path d="m503.282 361.445-64.75-64.818c6.14-9.153 7.538-19.087 7.252-23.916l-2.011-35.34 8.511-25.8c5.234-14.592.645-28.462-2.525-33.775l-18.154-30.36-4.416-26.793c-2.141-15.422-12.663-25.557-17.923-28.756l-30.106-18.414-16.327-21.675c-9.041-12.618-23.037-16.712-29.196-17.114l-35.208-2.258-24.478-11.569c-13.834-6.982-28.138-4.076-33.782-1.553l-32.225 14.416-27.045 1.178c-15.499.264-26.811 9.514-30.629 14.375l-21.847 27.773-23.414 13.661c-13.584 7.464-19.316 20.91-20.45 26.995l-6.467 34.791-14.426 22.988c-8.587 12.968-7.396 27.548-5.569 33.435l10.381 33.814-2.114 27.082c-1.194 11.404 2.768 21.16 6.676 27.258l-64.308 64.375c-7.799 7.807-10.598 17.281-7.485 25.342 3.157 8.18 11.661 13.231 23.356 13.885l53.775 6.817c2.305.289 7.368.925 9.367 1.587.199 1.067.358 3.017.503 4.778.176 2.154.395 4.835.787 7.955l5.685 49.025c.661 11.751 5.73 20.285 13.931 23.434 2.154.827 4.406 1.231 6.701 1.231 6.287 0 12.883-3.037 18.574-8.748l21.69-21.685c2.951-2.951 2.951-7.736.001-10.687-2.952-2.952-7.735-2.952-10.688-.001l-21.7 21.694c-3.327 3.339-6.92 4.947-9.16 4.086-1.846-.708-3.937-3.798-4.267-10.343-.009-.163-.022-.326-.041-.489l-5.722-49.326c-.359-2.866-.556-5.262-.728-7.375-.488-5.978-.91-11.141-5.345-14.93-3.889-3.322-9.261-4.14-17.697-5.199l-54.042-6.851c-.191-.024-.385-.042-.578-.051-6.51-.321-9.59-2.405-10.302-4.249-.869-2.25.732-5.869 4.078-9.218l63.717-63.782 18.611 18.773 10.679 24.996c5.768 14.471 18.39 21.771 24.25 23.604l33.633 10.633 21.027 17.139c.808.695 1.634 1.33 2.465 1.937l-24.057 24.103c-2.949 2.954-2.944 7.739.011 10.687 1.475 1.472 3.406 2.208 5.339 2.208 1.936 0 3.873-.74 5.349-2.219l27.962-28.016c3.81.944 7.377 1.299 10.324 1.299 2.005 0 3.726-.16 5.045-.399l34.692-6.255 26.535 5.355c6.734 1.544 13.084 1.156 18.489-.083l74.563 74.641c5.709 5.715 12.311 8.751 18.601 8.751 2.299 0 4.557-.406 6.714-1.236 8.197-3.152 13.262-11.685 13.921-23.431l5.648-48.951c.4-3.188.619-5.866.796-8.018.145-1.764.304-3.716.504-4.783 2.001-.664 7.081-1.3 9.404-1.591l53.737-6.816c11.697-.654 20.205-5.701 23.366-13.876 3.116-8.055.326-17.531-7.468-25.352zm-214.967 35.998c-.071-.017-.143-.032-.215-.047l-28.053-5.662c-.935-.188-1.897-.198-2.835-.029l-36.122 6.512c-2.209.402-6.879.245-11.822-1.544-.191-.082-.385-.153-.581-.218-2.566-.993-5.182-2.426-7.546-4.472-.056-.048-.112-.096-.169-.142l-22.227-18.118c-.74-.603-1.588-1.06-2.497-1.348l-35.031-11.075c-3.314-1.037-11.282-6.03-14.77-14.846-.025-.063-.051-.126-.078-.189l-11.283-26.412c-.375-.876-.912-1.674-1.583-2.351l-24.929-25.146c-.024-.024-.044-.051-.068-.075-.02-.02-.042-.036-.062-.056l-.797-.804c-2.472-2.513-7.252-10.734-6.244-20.105.008-.073.015-.147.021-.22l2.234-28.62c.074-.947-.031-1.898-.309-2.806l-10.81-35.21c-1.038-3.346-1.484-12.806 3.767-20.691.038-.057.075-.114.111-.172l15.242-24.289c.506-.806.855-1.7 1.029-2.636l6.73-36.203c.643-3.448 4.65-12.029 12.932-16.55.063-.035.126-.07.188-.106l24.744-14.437c.82-.479 1.544-1.108 2.131-1.855l22.741-28.908c2.16-2.751 9.665-8.473 19.075-8.605.075-.001.149-.003.224-.006l28.591-1.246c.952-.041 1.887-.263 2.757-.652l33.536-15.002c1.631-.729 4.864-1.494 8.758-1.494 3.708 0 8.017.694 12.108 2.775.064.033.13.065.195.096l25.877 12.229c.862.408 1.793.648 2.745.709l36.641 2.349c3.479.227 12.435 3.186 17.922 10.886.039.054.078.108.118.161l17.251 22.901c.572.76 1.282 1.404 2.093 1.9l31.349 19.175c2.983 1.814 9.555 8.601 10.833 18.001.01.07.021.141.032.211l4.666 28.309c.154.936.483 1.834.97 2.649l18.887 31.586c1.796 3.011 4.465 12.102 1.25 20.988-.025.068-.049.136-.071.205l-8.992 27.262c-.297.901-.422 1.849-.368 2.796l2.093 36.792c.208 3.491-1.621 12.772-8.598 19.181-.048.044-.096.089-.144.135l-20.588 19.93c-.683.662-1.236 1.446-1.629 2.313l-15.188 33.55c-1.442 3.192-7.362 10.551-16.458 12.926-.073.02-.146.04-.219.061l-27.487 8.068c-.916.268-1.772.708-2.524 1.296l-28.96 22.62c-1.016.794-2.841 1.806-5.195 2.66-.31.084-.616.186-.916.31-3.93 1.282-9.106 2.051-14.473.805zm208.338-16.097c-.713 1.843-3.797 3.926-10.315 4.247-.194.009-.388.026-.58.051l-54.002 6.849c-8.456 1.06-13.836 1.877-17.727 5.199-4.442 3.79-4.865 8.957-5.354 14.938-.173 2.112-.369 4.506-.737 7.444l-5.684 49.257c-.019.162-.032.323-.041.485-.33 6.542-2.419 9.632-4.266 10.341-2.241.863-5.851-.742-9.196-4.091l-70.471-70.545 27.746-21.673 25.999-7.631c14.975-3.959 23.747-15.653 26.295-21.292l14.591-32.234 15.401-14.909 64.269 64.336c3.345 3.357 4.943 6.978 4.072 9.228z"/><path d="m410.701 214.994c0-85.539-69.522-155.131-154.977-155.131-17.129 0-33.972 2.784-50.062 8.275-3.95 1.348-6.059 5.643-4.712 9.593s5.644 6.059 9.593 4.711c14.515-4.953 29.715-7.465 45.18-7.465 77.121 0 139.864 62.811 139.864 140.017 0 77.221-62.743 140.044-139.864 140.044-77.136 0-139.891-62.824-139.891-140.044 0-47.254 23.584-91.004 63.086-117.031 3.485-2.296 4.449-6.983 2.153-10.468s-6.985-4.449-10.469-2.152c-43.759 28.832-69.884 77.3-69.884 129.651 0 85.555 69.535 155.158 155.005 155.158 85.456.001 154.978-69.603 154.978-155.158z"/><path d="m229.606 223.173-29.099 33.829c-.03.035-.06.069-.089.104-5.991 7.225-8.78 13.165-8.78 18.695 0 7.168 2.714 13.348 7.802 17.829 4.908 4.398 11.144 6.628 18.532 6.628h81.897c6.804 0 12.867-2.47 17.535-7.142.114-.114.225-.232.331-.353 4.531-5.157 6.827-11.025 6.827-17.443 0-6.434-2.485-12.184-7.385-17.089-.121-.122-.247-.239-.376-.351-5.16-4.506-11.019-6.79-17.414-6.79h-25.899c7.382-8.408 12.78-14.77 16.115-18.995l14.789-18.797c.091-.115.178-.232.262-.352 10.246-14.704 15.44-29.282 15.44-43.33 0-16.076-5.983-29.754-17.784-40.653-11.648-10.761-26.447-16.217-43.984-16.217-17.553 0-32.93 5.969-45.687 17.726-12.997 11.916-19.587 26.191-19.587 42.428 0 16.892 9.083 26.58 24.92 26.58 5.971 0 16.841-2.214 22.568-17.089l3.294-8.728c3.562-9.585 8.619-10.814 12.627-10.814 2.688 0 4.7.808 6.502 2.596 1.771 1.773 2.597 3.702 2.597 6.068 0 2.498-1.152 8.286-8.862 19.003-4.046 5.426-13.162 16.416-27.092 32.657zm44.026-68.434c-4.684-4.648-10.461-7.005-17.172-7.005-8.721 0-20.449 3.585-26.782 20.628l-3.263 8.645c-2.49 6.467-5.53 7.359-8.444 7.359-6.36 0-9.806-1.827-9.806-11.466 0-11.993 4.805-22.227 14.703-31.302 10.031-9.245 21.63-13.739 35.458-13.739 13.806 0 24.839 3.992 33.728 12.205 8.698 8.033 12.927 17.7 12.927 29.552 0 10.845-4.241 22.456-12.604 34.513l-14.643 18.611c-4.64 5.875-13.616 16.262-26.681 30.87-1.986 2.222-2.482 5.403-1.265 8.123 1.216 2.72 3.919 4.471 6.899 4.471h42.702c2.632 0 4.95.919 7.275 2.89 2.493 2.581 2.786 4.783 2.786 6.226 0 2.64-.925 4.958-2.904 7.277-1.811 1.737-3.939 2.547-6.676 2.547h-81.897c-3.603 0-6.365-.906-8.494-2.813-1.885-1.66-2.726-3.674-2.726-6.53 0-.271.148-2.819 5.259-8.996l29.06-33.785c14.404-16.792 23.492-27.76 27.786-33.529.023-.031.046-.063.069-.095 7.904-10.974 11.746-20.095 11.746-27.885 0-6.361-2.426-12.153-7.041-16.772z"/></svg>